<svg width="current" height="current" viewBox="0 0 24 24" fill="current" xmlns="http://www.w3.org/2000/svg">
<path fill-rule="evenodd" clip-rule="evenodd" d="M12.5569 2.00237C11.102 1.9707 9.65764 2.25699 8.32477 2.84123C6.99189 3.42547 5.8026 4.29359 4.83992 5.38499C3.87723 6.47638 3.16436 7.76474 2.75108 9.16012C2.33779 10.5555 2.23405 12.0243 2.44709 13.4639C2.66013 14.9035 3.18482 16.2793 3.98453 17.4952C4.78425 18.7111 5.8397 19.7377 7.07722 20.5035C8.31474 21.2693 9.70449 21.7558 11.1495 21.929C12.5944 22.1021 14.0598 21.9578 15.4432 21.5061C15.6796 21.4289 15.8756 21.2609 15.9881 21.0391C16.1006 20.8174 16.1204 20.56 16.0432 20.3236C15.9659 20.0872 15.798 19.8912 15.5762 19.7787C15.3544 19.6662 15.0971 19.6464 14.8607 19.7236C13.3573 20.2145 11.7434 20.256 10.2168 19.843C8.69016 19.43 7.31728 18.5804 6.26648 17.3985C5.21568 16.2166 4.53266 14.7537 4.30117 13.1892C4.06968 11.6248 4.2998 10.0268 4.96329 8.59121C5.62678 7.15563 6.69481 5.9449 8.03639 5.10749C9.37797 4.27007 10.9348 3.84239 12.5159 3.87688C14.097 3.91138 15.6337 4.40655 16.9374 5.30168C18.2412 6.19681 19.2554 7.45297 19.8557 8.91612C19.95 9.14619 20.1319 9.32938 20.3612 9.42537C20.4748 9.4729 20.5966 9.4976 20.7198 9.49805C20.8429 9.4985 20.9649 9.47469 21.0788 9.42799C21.1927 9.38129 21.2963 9.31261 21.3837 9.22587C21.4711 9.13912 21.5405 9.03602 21.5881 8.92244C21.6356 8.80887 21.6603 8.68704 21.6607 8.56392C21.6612 8.44079 21.6374 8.31879 21.5907 8.20487C20.852 6.40398 19.6037 4.85784 17.999 3.75608C16.3943 2.65431 14.503 2.04482 12.5569 2.00237ZM13.2757 6.68737C13.2757 6.43873 13.1769 6.20027 13.0011 6.02445C12.8253 5.84864 12.5868 5.74987 12.3382 5.74987C12.0895 5.74987 11.8511 5.84864 11.6753 6.02445C11.4995 6.20027 11.4007 6.43873 11.4007 6.68737V11.6124L8.85818 14.1536C8.76607 14.2394 8.6922 14.3429 8.64096 14.4579C8.58972 14.5729 8.56216 14.6971 8.55994 14.823C8.55772 14.9488 8.58088 15.0739 8.62803 15.1906C8.67518 15.3074 8.74536 15.4134 8.83438 15.5024C8.92341 15.5914 9.02945 15.6616 9.14619 15.7088C9.26292 15.7559 9.38796 15.7791 9.51383 15.7769C9.63971 15.7746 9.76386 15.7471 9.87885 15.6958C9.99385 15.6446 10.0974 15.5707 10.1832 15.4786L13.0007 12.6624L13.2757 12.3874V6.68737ZM21.0882 20.7499C21.0882 21.0814 20.9565 21.3993 20.7221 21.6338C20.4876 21.8682 20.1697 21.9999 19.8382 21.9999C19.5067 21.9999 19.1887 21.8682 18.9543 21.6338C18.7199 21.3993 18.5882 21.0814 18.5882 20.7499C18.5882 20.4183 18.7199 20.1004 18.9543 19.866C19.1887 19.6316 19.5067 19.4999 19.8382 19.4999C20.1697 19.4999 20.4876 19.6316 20.7221 19.866C20.9565 20.1004 21.0882 20.4183 21.0882 20.7499ZM20.7757 12.9374C20.7757 12.6887 20.6769 12.4503 20.5011 12.2745C20.3253 12.0986 20.0868 11.9999 19.8382 11.9999C19.5895 11.9999 19.3511 12.0986 19.1753 12.2745C18.9995 12.4503 18.9007 12.6887 18.9007 12.9374V17.3124C18.9007 17.561 18.9995 17.7995 19.1753 17.9753C19.3511 18.1511 19.5895 18.2499 19.8382 18.2499C20.0868 18.2499 20.3253 18.1511 20.5011 17.9753C20.6769 17.7995 20.7757 17.561 20.7757 17.3124V12.9374Z" fill="current"/>
</svg>
