<svg width="current" height="current" viewBox="0 0 24 24" fill="current" xmlns="http://www.w3.org/2000/svg">
<path fill-rule="evenodd" clip-rule="evenodd" d="M4.03429 2.38571C4.13479 2.26505 4.2606 2.16795 4.40279 2.10129C4.54499 2.03464 4.7001 2.00006 4.85714 2H12C12.1569 1.99999 12.3119 2.03444 12.4541 2.10093C12.5962 2.16742 12.722 2.26432 12.8226 2.38478C12.9231 2.50525 12.996 2.64633 13.0361 2.79806C13.0761 2.94979 13.0823 3.10846 13.0543 3.26286L13.02 3.45C13.5302 3.52354 13.9967 3.7785 14.3342 4.16814C14.6716 4.55778 14.8573 5.05599 14.8571 5.57143V6.64286H12.3571C11.2205 6.64286 10.1304 7.09439 9.32669 7.89811C8.52296 8.70184 8.07143 9.79193 8.07143 10.9286V17.7143H4.14286C3.57454 17.7143 3.02949 17.4885 2.62763 17.0867C2.22576 16.6848 2 16.1397 2 15.5714V5.57143C1.99988 5.05599 2.18556 4.55778 2.52298 4.16814C2.86041 3.7785 3.32698 3.52354 3.83714 3.45L3.80286 3.26429C3.77449 3.10961 3.78052 2.95058 3.82051 2.7985C3.86051 2.64641 3.93349 2.505 4.03429 2.38429V2.38571ZM6.14286 4.14286L6.30714 5.04857C6.35198 5.29551 6.48209 5.51887 6.67476 5.67969C6.86744 5.84051 7.11046 5.92859 7.36143 5.92857H9.49857C9.74955 5.92859 9.99256 5.84051 10.1852 5.67969C10.3779 5.51887 10.508 5.29551 10.5529 5.04857L10.7171 4.14286H6.14286Z" fill="current"/>
<path fill-rule="evenodd" clip-rule="evenodd" d="M12.3572 8.42859C11.6941 8.42859 11.0583 8.69198 10.5894 9.16082C10.1206 9.62966 9.85718 10.2655 9.85718 10.9286V19.5C9.85718 20.88 10.9772 22 12.3572 22H19.5C20.1631 22 20.799 21.7366 21.2678 21.2678C21.7366 20.7989 22 20.1631 22 19.5V10.9286C22 10.2655 21.7366 9.62966 21.2678 9.16082C20.799 8.69198 20.1631 8.42859 19.5 8.42859H12.3572ZM13.25 13.4286C13.25 12.9357 13.65 12.5357 14.1429 12.5357H17.7143C17.9511 12.5357 18.1782 12.6298 18.3457 12.7972C18.5131 12.9647 18.6072 13.1918 18.6072 13.4286C18.6072 13.6654 18.5131 13.8925 18.3457 14.0599C18.1782 14.2274 17.9511 14.3214 17.7143 14.3214H14.1429C13.9061 14.3214 13.679 14.2274 13.5115 14.0599C13.3441 13.8925 13.25 13.6654 13.25 13.4286ZM14.1429 16.1072C13.9061 16.1072 13.679 16.2012 13.5115 16.3687C13.3441 16.5361 13.25 16.7632 13.25 17C13.25 17.2368 13.3441 17.4639 13.5115 17.6314C13.679 17.7988 13.9061 17.8929 14.1429 17.8929H17.7143C17.9511 17.8929 18.1782 17.7988 18.3457 17.6314C18.5131 17.4639 18.6072 17.2368 18.6072 17C18.6072 16.7632 18.5131 16.5361 18.3457 16.3687C18.1782 16.2012 17.9511 16.1072 17.7143 16.1072H14.1429Z" fill="current"/>
</svg>
